<svg width="89" height="86" viewBox="0 0 89 86" fill="none" xmlns="http://www.w3.org/2000/svg">
<g id="in">
<path d="M2.27063 28.4577H16.399V86H2.27063V28.4577ZM9.20866 17.6764C6.60165 17.6764 4.41511 16.7988 2.64907 15.0437C0.883022 13.2886 0 11.1156 0 8.52478C0 6.18465 0.883022 4.17882 2.64907 2.50729C4.41511 0.835764 6.60165 0 9.20866 0C11.7316 0 13.8761 0.835764 15.6421 2.50729C17.4082 4.17882 18.2912 6.18465 18.2912 8.52478C18.2912 11.1156 17.4082 13.2886 15.6421 15.0437C13.9602 16.7988 11.8157 17.6764 9.20866 17.6764Z" fill="#F8E9C3"/>
<path d="M34.0003 28.4577H47.3718L47.4979 38.9883C49.0958 35.4781 51.6187 32.5947 55.0667 30.3382C58.5147 28.0816 62.5514 26.9534 67.1767 26.9534C73.1476 26.9534 77.731 28.207 80.9267 30.7143C84.1224 33.138 86.2668 36.5646 87.3601 40.9942C88.4534 45.4237 89 51.1905 89 58.2945V86H75.3762V58.6706C75.3762 51.3994 74.6614 46.1759 73.2317 43C71.8021 39.7405 68.8587 38.1108 64.4015 38.1108C61.8786 38.1108 59.3136 38.9048 56.7066 40.4927C54.0996 41.9971 51.9131 44.2119 50.147 47.137C48.4651 50.0622 47.6241 53.4888 47.6241 57.4169V86H34.0003V28.4577Z" fill="#F8E9C3"/>
</g>
</svg>
