<svg width="139" height="148" viewBox="0 0 139 148" fill="none" xmlns="http://www.w3.org/2000/svg">
<g id="Github icon" filter="url(#filter0_ddd_27_43)">
<path d="M55.4927 101.888C56.0245 99.7619 57.4867 95.1912 59.0819 93.9157C61.0759 92.3213 26.3807 95.9087 25.1843 60.8314C25.5831 55.1181 27.8164 42.9739 33.559 40.1039C32.2297 33.8591 30.6877 20.9708 35.1542 19.3764C38.4775 18.4463 47.1978 18.6589 55.4927 26.9499C61.0759 25.0898 75.911 22.4855 90.5867 26.9499C93.1124 24.4254 100.317 19.3764 108.931 19.3764C111.324 21.3694 115.232 28.3052 111.723 40.1039C114.913 42.7613 120.736 51.4243 118.502 64.8175C115.711 81.5589 110.526 89.9296 86.2 93.9157C87.6622 94.9787 90.5867 98.0612 90.5867 101.888C90.5867 105.714 90.5867 120.224 90.5867 127M55.4927 127V118.231C48.5803 119.426 34.1173 119.825 31.5651 111.853C31.1663 109.196 28.933 103.163 23.1904 100.293C22.3928 99.4962 20.6381 97.5032 20 95.9087" stroke="#F8E9C3" stroke-width="4" stroke-linecap="round"/>
</g>
<defs>
<filter id="filter0_ddd_27_43" x="0.79948" y="0.799999" width="137.401" height="146.4" filterUnits="userSpaceOnUse" color-interpolation-filters="sRGB">
<feFlood flood-opacity="0" result="BackgroundImageFix"/>
<feColorMatrix in="SourceAlpha" type="matrix" values="0 0 0 0 0 0 0 0 0 0 0 0 0 0 0 0 0 0 127 0" result="hardAlpha"/>
<feOffset dy="1"/>
<feGaussianBlur stdDeviation="8.6"/>
<feComposite in2="hardAlpha" operator="out"/>
<feColorMatrix type="matrix" values="0 0 0 0 0.8275 0 0 0 0 0.797158 0 0 0 0 0.797158 0 0 0 0.25 0"/>
<feBlend mode="normal" in2="BackgroundImageFix" result="effect1_dropShadow_27_43"/>
<feColorMatrix in="SourceAlpha" type="matrix" values="0 0 0 0 0 0 0 0 0 0 0 0 0 0 0 0 0 0 127 0" result="hardAlpha"/>
<feOffset dy="4"/>
<feGaussianBlur stdDeviation="2"/>
<feComposite in2="hardAlpha" operator="out"/>
<feColorMatrix type="matrix" values="0 0 0 0 0 0 0 0 0 0 0 0 0 0 0 0 0 0 0.25 0"/>
<feBlend mode="normal" in2="effect1_dropShadow_27_43" result="effect2_dropShadow_27_43"/>
<feColorMatrix in="SourceAlpha" type="matrix" values="0 0 0 0 0 0 0 0 0 0 0 0 0 0 0 0 0 0 127 0" result="hardAlpha"/>
<feOffset dy="4"/>
<feGaussianBlur stdDeviation="2"/>
<feComposite in2="hardAlpha" operator="out"/>
<feColorMatrix type="matrix" values="0 0 0 0 0 0 0 0 0 0 0 0 0 0 0 0 0 0 0.25 0"/>
<feBlend mode="normal" in2="effect2_dropShadow_27_43" result="effect3_dropShadow_27_43"/>
<feBlend mode="normal" in="SourceGraphic" in2="effect3_dropShadow_27_43" result="shape"/>
</filter>
</defs>
</svg>
